<?xml version="1.0" encoding="UTF-8" ?>
<!DOCTYPE svg PUBLIC "-//W3C//DTD SVG 1.1//EN" "http://www.w3.org/Graphics/SVG/1.1/DTD/svg11.dtd">
<svg width="128pt" height="128pt" viewBox="0 0 128 128" version="1.1" xmlns="http://www.w3.org/2000/svg">
<g id="#000000ff">
<path fill="#000000" opacity="1.00" d=" M 21.59 57.59 C 22.19 36.54 39.49 16.96 60.96 16.23 C 83.90 14.15 105.32 35.19 104.47 58.04 C 109.42 61.86 114.90 66.41 115.61 73.06 C 116.52 80.95 115.79 89.99 110.07 96.05 C 106.74 99.82 100.99 102.06 96.20 99.85 C 92.64 97.94 92.72 93.32 91.93 89.87 C 85.11 94.45 77.63 97.93 70.20 101.34 C 56.84 105.26 44.89 95.98 34.19 89.35 C 33.29 92.90 33.10 97.66 29.24 99.40 C 24.20 101.75 18.52 98.57 15.35 94.59 C 6.41 83.42 8.48 64.72 21.59 57.59 M 28.15 46.24 C 22.36 61.57 27.99 81.10 42.16 89.85 L 42.35 89.78 C 50.83 93.53 58.67 100.48 68.64 97.58 C 73.73 94.99 78.81 92.30 84.06 89.97 C 94.72 83.64 100.48 71.18 100.47 59.02 C 101.59 39.47 84.81 20.52 64.99 20.37 C 48.73 19.21 32.41 30.43 28.15 46.24 M 17.91 65.81 L 17.97 65.94 C 10.68 75.40 13.75 96.96 28.56 95.96 C 28.62 95.26 28.76 93.88 28.83 93.19 C 31.36 82.36 21.54 73.78 21.86 63.03 C 20.53 63.94 19.23 64.89 17.91 65.81 M 97.17 88.21 C 96.93 91.04 97.26 93.87 97.54 96.69 C 112.27 97.41 116.09 75.36 107.73 66.29 L 107.77 66.14 C 106.71 65.29 105.66 64.42 104.61 63.55 C 104.51 72.52 98.09 79.58 97.17 88.21 Z" />
<path fill="#000000" opacity="1.00" d=" M 42.61 65.65 C 48.54 63.58 54.93 68.14 56.01 74.06 C 58.30 82.50 46.99 90.05 40.10 84.85 C 32.63 80.65 33.65 67.40 42.61 65.65 M 44.31 75.76 C 46.47 77.51 49.14 76.19 51.29 75.20 C 53.16 71.99 51.79 67.59 48.02 66.67 C 43.10 65.45 39.80 73.35 44.31 75.76 Z" />
<path fill="#000000" opacity="1.00" d=" M 71.66 70.67 C 76.32 61.36 93.30 66.52 91.09 76.94 C 90.96 82.64 86.15 86.31 80.98 87.42 C 73.14 86.67 67.03 77.84 71.66 70.67 M 74.60 69.76 C 72.96 73.28 75.83 76.35 78.95 77.56 C 81.69 76.69 83.79 74.78 84.61 71.99 C 84.05 67.03 77.00 65.16 74.60 69.76 Z" />
</g>
<g id="#e3c431ff">
<path fill="#e3c431" opacity="1.00" d=" M 28.15 46.24 C 32.41 30.43 48.73 19.21 64.99 20.37 C 84.81 20.52 101.59 39.47 100.47 59.02 C 100.48 71.18 94.72 83.64 84.06 89.97 C 79.52 88.47 74.89 86.78 70.03 86.98 C 60.75 87.61 51.05 85.39 42.35 89.78 L 42.16 89.85 C 27.99 81.10 22.36 61.57 28.15 46.24 M 42.61 65.65 C 33.65 67.40 32.63 80.65 40.10 84.85 C 46.99 90.05 58.30 82.50 56.01 74.06 C 54.93 68.14 48.54 63.58 42.61 65.65 M 71.66 70.67 C 67.03 77.84 73.14 86.67 80.98 87.42 C 86.15 86.31 90.96 82.64 91.09 76.94 C 93.30 66.52 76.32 61.36 71.66 70.67 Z" />
<path fill="#e3c431" opacity="1.00" d=" M 17.91 65.81 C 19.23 64.89 20.53 63.94 21.86 63.03 C 21.54 73.78 31.36 82.36 28.83 93.19 C 28.62 83.08 20.62 75.45 17.97 65.94 L 17.91 65.81 Z" />
<path fill="#e3c431" opacity="1.00" d=" M 97.17 88.21 C 98.09 79.58 104.51 72.52 104.61 63.55 C 105.66 64.42 106.71 65.29 107.77 66.14 L 107.73 66.29 C 106.11 74.43 101.72 81.44 97.17 88.21 Z" />
</g>
<g id="#eed45dff">
<path fill="#eed45d" opacity="1.00" d=" M 28.56 95.96 C 13.75 96.96 10.68 75.40 17.97 65.94 C 20.62 75.45 28.62 83.08 28.83 93.19 C 28.76 93.88 28.62 95.26 28.56 95.96 Z" />
<path fill="#eed45d" opacity="1.00" d=" M 97.17 88.21 C 101.72 81.44 106.11 74.43 107.73 66.29 C 116.09 75.36 112.27 97.41 97.54 96.69 C 97.26 93.87 96.93 91.04 97.17 88.21 Z" />
<path fill="#eed45d" opacity="1.00" d=" M 42.35 89.78 C 51.05 85.39 60.75 87.61 70.03 86.98 C 74.89 86.78 79.52 88.47 84.06 89.97 C 78.81 92.30 73.73 94.99 68.64 97.58 C 58.67 100.48 50.83 93.53 42.35 89.78 Z" />
</g>
<g id="#ffffffff">
<path fill="#ffffff" opacity="1.00" d=" M 44.31 75.76 C 39.80 73.35 43.10 65.45 48.02 66.67 C 51.79 67.59 53.16 71.99 51.29 75.20 C 49.14 76.19 46.47 77.51 44.31 75.76 Z" />
<path fill="#ffffff" opacity="1.00" d=" M 74.60 69.76 C 77.00 65.16 84.05 67.03 84.61 71.99 C 83.79 74.78 81.69 76.69 78.95 77.56 C 75.83 76.35 72.96 73.28 74.60 69.76 Z" />
</g>
</svg>
