<?xml version="1.0" encoding="utf-8"?>
<!-- Generator: Adobe Illustrator 25.2.1, SVG Export Plug-In . SVG Version: 6.00 Build 0)  -->
<svg version="1.1" id="图层_1" xmlns="http://www.w3.org/2000/svg" xmlns:xlink="http://www.w3.org/1999/xlink" x="0px" y="0px"
	 viewBox="0 0 531 531" style="enable-background:new 0 0 531 531;" xml:space="preserve">
<style type="text/css">
	.st0{fill:#FEEAD1;}
	.st1{fill:#FEFEFE;}
	.st2{fill:#6B676E;}
	.st3{fill:#E8D6C3;}
	.st4{fill:#474756;}
	.st5{fill:#484856;}
</style>
<g>
	<g>
		<path class="st0" d="M0.3,336c0-27.6,0-55.3,0-82.8c4.1-35.3,20.7-65.7,38.3-95.6c28.1-33.1,58.4-63.9,95-87.8
			c37.6-24.7,79.4-38.2,123.7-40.9c44.1-2.7,85.2,11.6,124.1,31.5c5.5,2.8,10.8,6.1,16,9.3c35.3,23.9,66.2,52.5,92.1,86.4
			c22,30.4,37.5,63.4,41.2,101.3c0,24.8,0,49.7,0,74.6c-16.5,117.1-123.2,170.3-206.2,183c-6.8,1-13.7,1.4-20-2.3
			c-6.3-11.9,5.2-13.5,11-17.4c17.1-11.5,31.9-24.3,34.4-46.5c10.5-20.1,9.3-40.6,3.9-62.1c-8.4-33.8-20.7-65.5-43.7-92.3
			c-24.6-28.7-63.6-30.3-88.1-1.7c-30.5,35.6-45.3,78.1-49.5,124.4c-1,11.6,4.4,21.3,8.5,31.4c3,23.1,18.3,36.6,37,47.7
			c5.9,3.5,17.2,3.5,13.4,15.7c-4.7,3.5-10.2,4.4-15.8,3.7c-83.8-9.4-172.1-55.8-206.3-144C4.8,360.1,6,347.2,0.3,336z"/>
		<path class="st1" d="M302.7,510c92.2-4.7,190.2-58.8,219.3-157.6c2.1-7.1,2.9-14.9,8.7-20.5c0,62.1-0.3,124.3,0.3,186.4
			c0.1,10.4-2.4,12.7-12.7,12.7c-168.5-0.4-337-0.4-505.5,0C2.4,531,0,528.7,0.1,518.3C0.7,457.5,0.4,396.8,0.4,336
			c8.9,7.9,9.2,19.6,13.1,29.7c23.1,58.9,65.3,98.9,123.2,122.9c30.6,12.7,62.1,22.2,95.7,21.6C255.8,504.9,279.3,503.4,302.7,510z"
			/>
		<path class="st1" d="M42.4,157c-0.7,15.1-12.4,25.2-17.6,38.4C17.1,214.9,8.5,234,0.3,253.2C0.3,173.9,0.5,94.7,0,15.4
			C0,4.5,0.4,0,14.2,0c167.5,0.7,335,0.7,502.5,0c13.8,0,14.2,4.5,14.2,15.4c-0.4,80.6-0.2,161.2-0.2,241.8
			c-11.5-34.7-25.4-68.4-45.5-99.1c1.4-11.8,10.9-18.8,17-27.7c18.9-27.5,16.1-67.3-6.8-91.3c-25.1-26.3-64.1-18.6-82.3,15.7
			c-3.9,7.3-3,18.3-14.5,20.4c-21.3-9.3-42.2-19.6-64-27.5C269.5,24.1,208,35.3,149,68.4c-5.3,3-11.3,4.7-17,7
			c-10.5-1.7-10.6-11.5-13.9-18.5c-9.3-19.4-22.9-33.3-45.7-32.9c-23.6,0.4-40.6,12.3-49.9,34c-11.1,25.8-10.7,50.7,7.3,74.1
			C35.6,139.4,43.6,146.1,42.4,157z"/>
		<path class="st1" d="M178.2,452.2c-21.6-23-11.5-49.2-5.8-73.9c7-30.3,20.4-58,38.9-83.5c27.9-38.5,76.1-38.7,106.1-1.7
			c26.7,32.8,38.1,71,46.7,110.7c3.7,17.3,0.9,34.2-11.4,48.4c-5.6,18.7-21.7,22.9-37.2,22.4c-34.2-0.9-68.2-0.3-102.4,0.2
			C197.5,475.2,183.7,469.2,178.2,452.2z"/>
		<path class="st2" d="M69.3,301.9c-0.6-14.5,7.3-25.1,16.2-34.8c18.8-20.7,41.6-36.3,67.1-47.6c19-8.4,36.7-5.7,50.8,10.3
			c13.1,14.9,12.8,30.8,3,47.7c-13.6,23.4-29.6,44.8-49.1,63.8c-15.1,14.6-31.9,22.3-52.4,12.5C83.3,343.3,71.4,325.8,69.3,301.9z"
			/>
		<path class="st2" d="M358.9,215.1c29.5,0.1,92,46.7,100.9,75.2c6,19.5-5.1,44.9-25.6,58.8c-18.5,12.5-37.6,12-55.2-3
			c-24.3-20.9-43.7-46.1-57.5-75.1C309,244.4,328.9,215.1,358.9,215.1z"/>
		<path class="st2" d="M42.4,157c-21.7-24.1-40.7-48.7-31.3-84.8C19.8,38.8,39.5,19.6,70,17.7c28.2-1.8,44.8,11.7,57.6,46.3
			c1.4,3.9,2.9,7.7,4.4,11.5C99.4,99.6,72.8,130.5,42.4,157z"/>
		<path class="st2" d="M398.5,75.3c3.7-8.8,7-17.8,11.2-26.4c9-18.5,22.5-31,44.5-31.3c23.7-0.3,42.8,8.4,55.3,29.3
			c18.6,31,16.6,63.3-6,91.9c-5.5,6.9-12.2,12.9-18.3,19.4C460.3,126.4,429.5,100.8,398.5,75.3z"/>
		<path class="st3" d="M178.2,452.2c19.7,20.5,44.4,18.8,68.9,14.5c12.4-2.2,24-2.4,36.4,0c24.8,4.6,49.2,4.7,69.2-14.5
			c2.2,24-15.8,34.3-31.3,46.2c-5.8,4.4-12.4,7.8-18.7,11.6c-23.4,4.6-46.9,7-70.4,0.1c-21.5-10.7-43.5-20.8-53.6-45.1
			C177,460.9,172.8,456.7,178.2,452.2z"/>
		<path class="st4" d="M266.1,377.1c15.2-0.2,30.3,1.3,44.8,5.5c15.2,4.4,17.5,13.7,7.7,26.3c-25.3,32.4-80.8,32.6-106.2,0.3
			c-10.6-13.4-7.9-22.6,8.8-27C235.9,378.3,251,376.7,266.1,377.1z"/>
		<path class="st5" d="M169.8,240.8c11.9-0.2,17.2,4.7,16.9,14.9c-0.3,10.4-5.7,17.1-16.2,17.6c-10.5,0.5-14.7-7.8-15.6-16
			C153.6,246.3,161.6,242,169.8,240.8z"/>
		<path class="st5" d="M361.1,240.8c8.2,1.2,16.3,5.4,15,16.5c-0.9,8.2-5.1,16.5-15.6,16c-10.6-0.5-15.9-7.2-16.2-17.6
			C344,245.6,349.2,240.6,361.1,240.8z"/>
	</g>
</g>
</svg>
