<?xml version="1.0" encoding="utf-8"?>
<!-- Generator: Adobe Illustrator 25.2.1, SVG Export Plug-In . SVG Version: 6.00 Build 0)  -->
<svg version="1.1" id="图层_1" xmlns="http://www.w3.org/2000/svg" xmlns:xlink="http://www.w3.org/1999/xlink" x="0px" y="0px"
	 viewBox="0 0 595.28 841.89" style="enable-background:new 0 0 595.28 841.89;" xml:space="preserve">
<style type="text/css">
	.st0{fill:#FEEAD1;}
	.st1{fill:#FEFEFE;}
	.st2{fill:#6B676E;}
	.st3{fill:#E8D6C3;}
	.st4{fill:#474756;}
	.st5{fill:#484856;}
</style>
<g>
	<g>
		<path class="st0" d="M234.07,437.89c0-6.66,0-13.32,0-19.97c1-8.51,4.99-15.83,9.23-23.04c6.78-7.97,14.07-15.4,22.9-21.16
			c9.06-5.96,19.13-9.22,29.82-9.87c10.64-0.65,20.53,2.8,29.92,7.6c1.32,0.68,2.6,1.46,3.85,2.24
			c8.52,5.75,15.95,12.66,22.21,20.82c5.31,7.32,9.05,15.29,9.93,24.41c0,5.99,0,11.98,0,17.98c-3.97,28.24-29.7,41.06-49.72,44.12
			c-1.65,0.25-3.3,0.33-4.83-0.55c-1.51-2.88,1.26-3.26,2.65-4.19c4.13-2.77,7.7-5.86,8.3-11.2c2.52-4.85,2.24-9.79,0.95-14.97
			c-2.03-8.16-4.99-15.78-10.54-22.24c-5.93-6.91-15.34-7.3-21.25-0.41c-7.35,8.58-10.92,18.82-11.93,30
			c-0.25,2.79,1.06,5.14,2.05,7.58c0.73,5.58,4.4,8.83,8.93,11.5c1.42,0.84,4.14,0.85,3.23,3.79c-1.14,0.84-2.47,1.05-3.8,0.9
			c-20.19-2.27-41.48-13.44-49.74-34.71C235.15,443.7,235.45,440.59,234.07,437.89z"/>
		<path class="st1" d="M306.98,479.83c22.23-1.14,45.86-14.17,52.86-37.99c0.5-1.71,0.7-3.59,2.1-4.94
			c0,14.98-0.07,29.96,0.07,44.94c0.02,2.5-0.57,3.07-3.06,3.06c-40.62-0.09-81.25-0.09-121.87,0c-2.5,0.01-3.09-0.56-3.06-3.06
			c0.14-14.65,0.07-29.29,0.07-43.94c2.15,1.9,2.21,4.73,3.17,7.15c5.58,14.21,15.75,23.84,29.7,29.62
			c7.37,3.05,14.96,5.34,23.07,5.2C295.66,478.62,301.32,478.24,306.98,479.83z"/>
		<path class="st1" d="M244.21,394.75c-0.17,3.65-3,6.08-4.25,9.26c-1.84,4.68-3.92,9.28-5.9,13.91c0-19.1,0.05-38.21-0.06-57.31
			c-0.01-2.64,0.1-3.73,3.42-3.72c40.38,0.17,80.75,0.17,121.13,0c3.33-0.01,3.43,1.09,3.42,3.72c-0.1,19.43-0.05,38.87-0.05,58.3
			c-2.78-8.36-6.12-16.48-10.97-23.89c0.34-2.85,2.62-4.54,4.1-6.68c4.56-6.62,3.89-16.23-1.64-22c-6.06-6.33-15.45-4.49-19.85,3.79
			c-0.93,1.76-0.73,4.42-3.49,4.91c-5.13-2.23-10.17-4.73-15.42-6.64c-15.67-5.69-30.51-2.99-44.72,4.98
			c-1.28,0.72-2.73,1.13-4.1,1.69c-2.54-0.42-2.55-2.78-3.36-4.47c-2.24-4.68-5.52-8.03-11.01-7.94c-5.68,0.09-9.78,2.97-12.02,8.19
			c-2.67,6.23-2.59,12.23,1.75,17.86C242.57,390.49,244.5,392.1,244.21,394.75z"/>
		<path class="st1" d="M276.96,465.9c-5.21-5.55-2.78-11.85-1.4-17.81c1.69-7.3,4.92-13.99,9.37-20.12
			c6.73-9.29,18.34-9.32,25.59-0.41c6.44,7.9,9.19,17.11,11.25,26.69c0.9,4.18,0.21,8.25-2.74,11.66c-1.36,4.5-5.24,5.51-8.98,5.41
			c-8.24-0.22-16.45-0.08-24.68,0.06C281.61,471.44,278.28,470,276.96,465.9z"/>
		<path class="st2" d="M250.71,429.66c-0.15-3.49,1.77-6.06,3.9-8.4c4.54-4.99,10.03-8.76,16.17-11.48
			c4.57-2.02,8.85-1.38,12.25,2.49c3.15,3.58,3.08,7.43,0.72,11.49c-3.28,5.65-7.14,10.81-11.83,15.37
			c-3.63,3.53-7.68,5.37-12.63,3.02C254.08,439.66,251.21,435.44,250.71,429.66z"/>
		<path class="st2" d="M320.52,408.75c7.11,0.02,22.19,11.27,24.32,18.14c1.45,4.69-1.23,10.83-6.17,14.17
			c-4.46,3.01-9.07,2.9-13.3-0.73c-5.87-5.04-10.54-11.11-13.85-18.1C308.48,415.81,313.3,408.74,320.52,408.75z"/>
		<path class="st2" d="M244.21,394.75c-5.24-5.81-9.81-11.75-7.54-20.45c2.11-8.06,6.86-12.69,14.21-13.15
			c6.79-0.43,10.81,2.81,13.88,11.15c0.34,0.93,0.71,1.85,1.07,2.77C257.97,380.91,251.55,388.34,244.21,394.75z"/>
		<path class="st2" d="M330.07,375.04c0.89-2.13,1.69-4.3,2.7-6.37c2.18-4.45,5.42-7.48,10.72-7.55c5.72-0.07,10.31,2.02,13.33,7.06
			c4.48,7.48,4.01,15.27-1.45,22.16c-1.33,1.67-2.93,3.12-4.41,4.68C344.97,387.35,337.54,381.18,330.07,375.04z"/>
		<path class="st3" d="M276.96,465.9c4.74,4.93,10.7,4.54,16.62,3.5c2.99-0.52,5.79-0.57,8.77-0.01c5.97,1.12,11.86,1.14,16.68-3.5
			c0.54,5.78-3.81,8.28-7.55,11.14c-1.4,1.07-3,1.87-4.51,2.79c-5.65,1.12-11.31,1.69-16.97,0.03c-5.19-2.57-10.49-5.02-12.91-10.87
			C276.68,467.99,275.66,466.99,276.96,465.9z"/>
		<path class="st4" d="M298.16,447.8c3.66-0.05,7.3,0.31,10.8,1.32c3.67,1.06,4.22,3.31,1.86,6.33c-6.11,7.8-19.47,7.85-25.61,0.08
			c-2.55-3.22-1.9-5.46,2.13-6.52C290.87,448.1,294.5,447.71,298.16,447.8z"/>
		<path class="st5" d="M274.93,414.95c2.87-0.06,4.15,1.13,4.07,3.6c-0.08,2.5-1.37,4.12-3.91,4.24c-2.53,0.12-3.54-1.88-3.76-3.86
			C271.02,416.26,272.96,415.24,274.93,414.95z"/>
		<path class="st5" d="M321.06,414.95c1.98,0.29,3.92,1.31,3.61,3.98c-0.22,1.98-1.24,3.98-3.76,3.86
			c-2.55-0.12-3.83-1.74-3.91-4.24C316.92,416.09,318.19,414.89,321.06,414.95z"/>
	</g>
</g>
</svg>
