<?xml version="1.0" encoding="UTF-8" ?>
<!DOCTYPE svg PUBLIC "-//W3C//DTD SVG 1.1//EN" "http://www.w3.org/Graphics/SVG/1.1/DTD/svg11.dtd">
<svg width="128pt" height="128pt" viewBox="0 0 128 128" version="1.1" xmlns="http://www.w3.org/2000/svg">
<g id="#6b676eff">
<path fill="#6b676e" opacity="1.00" d=" M 2.18 20.95 C 2.06 12.44 8.85 3.36 18.01 4.25 C 26.24 3.40 30.18 12.24 31.79 18.86 C 23.72 23.99 16.70 30.66 11.05 38.36 C 6.31 33.79 1.29 28.06 2.18 20.95 Z" />
<path fill="#6b676e" opacity="1.00" d=" M 96.16 18.82 C 97.71 12.16 101.80 3.41 110.00 4.25 C 119.15 3.36 125.78 12.48 125.73 20.93 C 126.76 28.02 121.62 33.77 116.89 38.30 C 111.26 30.59 104.20 23.96 96.16 18.82 Z" />
<path fill="#6b676e" opacity="1.00" d=" M 37.38 52.55 C 44.09 49.20 52.75 55.63 51.43 63.01 C 47.91 71.52 41.93 79.01 34.81 84.81 C 24.82 91.28 11.43 75.85 18.67 66.68 C 23.46 60.39 30.20 55.75 37.38 52.55 M 39.32 58.35 C 34.48 60.54 38.96 68.62 43.35 65.32 C 47.51 62.67 43.98 55.62 39.32 58.35 Z" />
<path fill="#6b676e" opacity="1.00" d=" M 82.44 52.62 C 87.75 49.96 93.18 53.65 97.65 56.32 C 103.16 60.04 109.02 64.41 111.31 70.93 C 112.57 79.89 101.79 90.27 93.17 84.81 C 86.56 79.70 81.32 72.86 77.53 65.44 C 74.71 60.80 77.69 54.57 82.44 52.62 M 84.32 58.40 C 80.20 61.38 85.06 68.54 89.23 65.20 C 93.25 61.92 88.74 55.82 84.32 58.40 Z" />
</g>
<g id="#feead2ff">
<path fill="#feead2" opacity="1.00" d=" M 31.79 18.86 C 42.58 11.79 55.57 7.36 68.57 8.56 C 78.43 9.70 87.89 13.37 96.16 18.82 C 104.20 23.96 111.26 30.59 116.89 38.30 C 123.07 46.81 127.17 56.93 128.00 67.46 L 128.00 73.51 C 127.25 84.99 122.62 96.27 114.55 104.54 C 101.43 118.41 81.66 124.24 62.96 123.82 C 44.69 123.83 25.59 117.70 12.95 104.04 C 5.20 95.80 0.72 84.78 0.00 73.53 L 0.00 66.63 C 1.09 56.43 5.05 46.65 11.05 38.36 C 16.70 30.66 23.72 23.99 31.79 18.86 M 37.38 52.55 C 30.20 55.75 23.46 60.39 18.67 66.68 C 11.43 75.85 24.82 91.28 34.81 84.81 C 41.93 79.01 47.91 71.52 51.43 63.01 C 52.75 55.63 44.09 49.20 37.38 52.55 M 82.44 52.62 C 77.69 54.57 74.71 60.80 77.53 65.44 C 81.32 72.86 86.56 79.70 93.17 84.81 C 101.79 90.27 112.57 79.89 111.31 70.93 C 109.02 64.41 103.16 60.04 97.65 56.32 C 93.18 53.65 87.75 49.96 82.44 52.62 M 60.30 64.37 C 49.78 67.77 45.36 79.54 42.11 89.12 C 40.50 95.73 37.13 105.12 44.02 109.85 C 51.49 116.46 61.52 109.84 69.99 112.60 C 77.04 114.18 87.05 111.32 87.90 103.01 C 87.95 91.09 83.41 79.23 76.08 69.87 C 72.45 65.18 66.08 62.90 60.30 64.37 Z" />
</g>
<g id="#464655ff">
<path fill="#464655" opacity="1.00" d=" M 39.32 58.35 C 43.98 55.62 47.51 62.67 43.35 65.32 C 38.96 68.62 34.48 60.54 39.32 58.35 Z" />
<path fill="#464655" opacity="1.00" d=" M 84.32 58.40 C 88.74 55.82 93.25 61.92 89.23 65.20 C 85.06 68.54 80.20 61.38 84.32 58.40 Z" />
<path fill="#464655" opacity="1.00" d=" M 54.47 91.77 C 62.20 90.91 71.34 89.56 78.13 94.06 C 78.50 100.95 69.51 103.70 64.00 105.31 C 58.73 104.03 52.87 101.76 49.98 96.88 C 48.12 93.79 52.06 92.17 54.47 91.77 Z" />
</g>
<g id="#ffffffff">
<path fill="#ffffff" opacity="1.00" d=" M 60.30 64.37 C 66.08 62.90 72.45 65.18 76.08 69.87 C 83.41 79.23 87.95 91.09 87.90 103.01 C 87.05 111.32 77.04 114.18 69.99 112.60 C 61.52 109.84 51.49 116.46 44.02 109.85 C 37.13 105.12 40.50 95.73 42.11 89.12 C 45.36 79.54 49.78 67.77 60.30 64.37 M 54.47 91.77 C 52.06 92.17 48.12 93.79 49.98 96.88 C 52.87 101.76 58.73 104.03 64.00 105.31 C 69.51 103.70 78.50 100.95 78.13 94.06 C 71.34 89.56 62.20 90.91 54.47 91.77 Z" />
</g>
</svg>
