<?xml version="1.0" encoding="UTF-8" ?>
<!DOCTYPE svg PUBLIC "-//W3C//DTD SVG 1.1//EN" "http://www.w3.org/Graphics/SVG/1.1/DTD/svg11.dtd">
<svg width="128pt" height="128pt" viewBox="0 0 128 128" version="1.1" xmlns="http://www.w3.org/2000/svg">
<g id="#6b676eff">
<path fill="#6b676e" opacity="1.00" d=" M 10.01 6.14 C 18.98 0.19 30.89 7.35 30.96 17.79 C 31.39 17.92 32.24 18.19 32.67 18.32 C 24.18 23.55 16.73 30.45 10.97 38.59 C 0.70 30.95 -1.57 13.61 10.01 6.14 Z" />
<path fill="#6b676e" opacity="1.00" d=" M 96.94 17.83 C 96.97 7.41 109.04 0.15 118.00 6.17 C 129.40 13.73 127.29 30.92 116.98 38.55 C 111.25 30.40 103.78 23.55 95.33 18.31 C 95.73 18.19 96.54 17.95 96.94 17.83 Z" />
<path fill="#6b676e" opacity="1.00" d=" M 37.41 52.53 C 44.12 49.24 52.70 55.62 51.45 62.99 C 47.91 71.50 41.94 78.98 34.85 84.80 C 24.84 91.30 11.40 75.84 18.68 66.67 C 23.48 60.36 30.22 55.74 37.41 52.53 M 38.81 65.27 C 43.12 68.11 46.97 62.36 44.38 58.59 C 39.85 55.63 34.47 61.57 38.81 65.27 Z" />
<path fill="#6b676e" opacity="1.00" d=" M 83.19 52.32 C 93.36 50.49 102.34 59.17 108.82 66.12 C 118.18 76.54 99.76 94.02 90.43 82.58 C 82.95 75.44 68.57 59.45 83.19 52.32 M 83.62 58.59 C 81.04 62.35 84.82 68.10 89.16 65.27 C 93.55 61.59 88.15 55.61 83.62 58.59 Z" />
</g>
<g id="#feead2ff">
<path fill="#feead2" opacity="1.00" d=" M 32.67 18.32 C 51.14 5.34 76.85 5.36 95.33 18.31 C 103.78 23.55 111.25 30.40 116.98 38.55 C 123.22 46.95 127.17 57.11 128.00 67.56 L 128.00 73.27 C 126.47 111.32 82.78 129.86 49.53 122.73 C 24.69 119.41 0.85 99.77 0.00 73.43 L 0.00 67.42 C 0.84 57.03 4.79 46.96 10.97 38.59 C 16.73 30.45 24.18 23.55 32.67 18.32 M 37.41 52.53 C 30.22 55.74 23.48 60.36 18.68 66.67 C 11.40 75.84 24.84 91.30 34.85 84.80 C 41.94 78.98 47.91 71.50 51.45 62.99 C 52.70 55.62 44.12 49.24 37.41 52.53 M 83.19 52.32 C 68.57 59.45 82.95 75.44 90.43 82.58 C 99.76 94.02 118.18 76.54 108.82 66.12 C 102.34 59.17 93.36 50.49 83.19 52.32 M 59.39 64.55 C 45.95 71.20 41.30 88.14 39.81 102.01 C 40.72 113.64 55.30 114.68 64.00 111.52 C 73.87 115.90 91.19 111.71 87.68 97.96 C 85.40 83.73 77.83 60.76 59.39 64.55 Z" />
</g>
<g id="#464655ff">
<path fill="#464655" opacity="1.00" d=" M 38.81 65.27 C 34.47 61.57 39.85 55.63 44.38 58.59 C 46.97 62.36 43.12 68.11 38.81 65.27 Z" />
<path fill="#464655" opacity="1.00" d=" M 83.62 58.59 C 88.15 55.61 93.55 61.59 89.16 65.27 C 84.82 68.10 81.04 62.35 83.62 58.59 Z" />
<path fill="#464655" opacity="1.00" d=" M 49.37 94.67 C 57.15 89.25 70.68 89.33 78.57 94.61 C 77.31 101.30 69.63 103.58 63.99 105.42 C 58.29 103.68 50.78 101.31 49.37 94.67 Z" />
</g>
<g id="#ffffffff">
<path fill="#ffffff" opacity="1.00" d=" M 59.39 64.55 C 77.83 60.76 85.40 83.73 87.68 97.96 C 91.19 111.71 73.87 115.90 64.00 111.52 C 55.30 114.68 40.72 113.64 39.81 102.01 C 41.30 88.14 45.95 71.20 59.39 64.55 M 49.37 94.67 C 50.78 101.31 58.29 103.68 63.99 105.42 C 69.63 103.58 77.31 101.30 78.57 94.61 C 70.68 89.33 57.15 89.25 49.37 94.67 Z" />
</g>
</svg>
